<svg width="2636" height="544" viewBox="0 0 2636 544" fill="none" xmlns="http://www.w3.org/2000/svg">
<g clip-path="url(#clip0_59902_49)">
<path d="M336 16H176C159.026 16 142.747 22.7428 130.745 34.7452C118.743 46.7475 112 63.0261 112 80V464C112 480.974 118.743 497.252 130.745 509.255C142.747 521.257 159.026 528 176 528H336C352.974 528 369.252 521.257 381.255 509.255C393.257 497.252 400 480.974 400 464V80C400 63.0261 393.257 46.7475 381.255 34.7452C369.252 22.7428 352.974 16 336 16ZM368 464C368 472.487 364.629 480.626 358.627 486.627C352.626 492.629 344.487 496 336 496H176C167.513 496 159.374 492.629 153.373 486.627C147.371 480.626 144 472.487 144 464V80C144 71.5131 147.371 63.3737 153.373 57.3726C159.374 51.3714 167.513 48 176 48H187.35C188.897 47.9944 190.412 48.4409 191.709 49.2848C193.006 50.1287 194.028 51.3331 194.65 52.75C197.135 58.4694 201.236 63.3382 206.45 66.7581C211.664 70.178 217.764 72 224 72H288C294.236 72 300.336 70.178 305.55 66.7581C310.764 63.3382 314.865 58.4694 317.35 52.75C317.972 51.3331 318.994 50.1287 320.291 49.2848C321.588 48.4409 323.103 47.9944 324.65 48H336C344.487 48 352.626 51.3714 358.627 57.3726C364.629 63.3737 368 71.5131 368 80V464Z" fill="black"/>
<path d="M336 64C334.157 63.9887 332.336 64.4066 330.682 65.2206C329.028 66.0346 327.586 67.2224 326.47 68.69C322.003 74.6811 316.2 79.5466 309.521 82.899C302.842 86.2514 295.473 87.9981 288 88H224C216.527 87.9981 209.158 86.2514 202.479 82.899C195.8 79.5466 189.997 74.6811 185.53 68.69C184.414 67.2224 182.972 66.0346 181.318 65.2206C179.664 64.4066 177.843 63.9887 176 64C171.757 64 167.687 65.6857 164.686 68.6863C161.686 71.6869 160 75.7565 160 80V464C160 468.243 161.686 472.313 164.686 475.314C167.687 478.314 171.757 480 176 480H336C340.243 480 344.313 478.314 347.314 475.314C350.314 472.313 352 468.243 352 464V80C352 75.7565 350.314 71.6869 347.314 68.6863C344.313 65.6857 340.243 64 336 64Z" fill="#15394E"/>
<path d="M336 16H176C159.026 16 142.747 22.7428 130.745 34.7452C118.743 46.7475 112 63.0261 112 80V464C112 480.974 118.743 497.252 130.745 509.255C142.747 521.257 159.026 528 176 528H336C352.974 528 369.252 521.257 381.255 509.255C393.257 497.252 400 480.974 400 464V80C400 63.0261 393.257 46.7475 381.255 34.7452C369.252 22.7428 352.974 16 336 16ZM368 464C368 472.487 364.629 480.626 358.627 486.627C352.626 492.629 344.487 496 336 496H176C167.513 496 159.374 492.629 153.373 486.627C147.371 480.626 144 472.487 144 464V80C144 71.5131 147.371 63.3737 153.373 57.3726C159.374 51.3714 167.513 48 176 48H187.35C188.897 47.9944 190.412 48.4409 191.709 49.2848C193.006 50.1287 194.028 51.3331 194.65 52.75C197.135 58.4694 201.236 63.3382 206.45 66.7581C211.664 70.178 217.764 72 224 72H288C294.236 72 300.336 70.178 305.55 66.7581C310.764 63.3382 314.865 58.4694 317.35 52.75C317.972 51.3331 318.994 50.1287 320.291 49.2848C321.588 48.4409 323.103 47.9944 324.65 48H336C344.487 48 352.626 51.3714 358.627 57.3726C364.629 63.3737 368 71.5131 368 80V464Z" fill="#115571"/>
</g>
<rect x="541" width="19" height="544" fill="#115571"/>
<path d="M787.6 239.88C783.88 243 779.14 245.34 773.38 246.9C767.62 248.58 760.84 249.42 753.04 249.42H692.38C689.5 249.42 687.4 248.76 686.08 247.44C684.76 246.12 684.1 244.02 684.1 241.14V124.5C684.1 122.94 684.28 121.62 684.64 120.54C685.12 119.46 685.78 118.56 686.62 117.84L709.84 98.22C710.44 97.74 711.22 97.38 712.18 97.14C713.26 96.78 714.4 96.6 715.6 96.6H776.26C791.98 96.6 803.56 99.78 811 106.14C818.56 112.5 822.34 122.16 822.34 135.12V191.28C822.34 197.76 821.38 203.46 819.46 208.38C817.54 213.18 814.72 217.2 811 220.44L787.6 239.88ZM776.26 228C791.26 228 802.36 225 809.56 219C816.88 213 820.54 203.76 820.54 191.28V135.12C820.54 122.64 816.88 113.4 809.56 107.4C802.36 101.4 791.26 98.4 776.26 98.4H715.6C713.32 98.4 711.64 98.94 710.56 100.02C709.6 100.98 709.12 102.6 709.12 104.88V221.52C709.12 223.8 709.6 225.48 710.56 226.56C711.64 227.52 713.32 228 715.6 228H776.26ZM728.74 211.8V114.6H772.3C778.42 114.6 783.34 115.26 787.06 116.58C790.9 117.9 793.84 119.7 795.88 121.98C797.92 124.14 799.3 126.78 800.02 129.9C800.74 132.9 801.1 136.14 801.1 139.62V187.32C801.1 190.8 800.74 194.04 800.02 197.04C799.42 200.04 798.1 202.62 796.06 204.78C794.02 206.94 791.08 208.68 787.24 210C783.4 211.2 778.42 211.8 772.3 211.8H728.74ZM772.3 116.4H730.54V210H772.3C778.06 210 782.68 209.46 786.16 208.38C789.76 207.18 792.52 205.62 794.44 203.7C796.36 201.66 797.62 199.26 798.22 196.5C798.94 193.62 799.3 190.56 799.3 187.32V139.62C799.3 136.38 798.94 133.32 798.22 130.44C797.5 127.56 796.18 125.1 794.26 123.06C792.34 121.02 789.58 119.4 785.98 118.2C782.5 117 777.94 116.4 772.3 116.4ZM749.98 132.78H771.4C774.28 132.78 776.38 133.5 777.7 134.94C779.14 136.26 779.86 138.42 779.86 141.42V185.16C779.86 188.16 779.14 190.38 777.7 191.82C776.38 193.26 774.28 193.98 771.4 193.98H749.98V132.78ZM754.84 161.04C754.84 159.48 754.6 158.16 754.12 157.08C753.64 156 752.86 155.22 751.78 154.74V192.18H754.84V161.04ZM871.427 173.46V179.04H941.627V173.46C941.627 170.22 941.327 167.22 940.727 164.46C940.247 161.7 939.587 159.12 938.747 156.72L926.327 127.38C925.007 124.26 923.627 121.68 922.187 119.64C920.747 117.48 918.347 116.4 914.987 116.4H897.347C893.747 116.4 891.227 117.48 889.787 119.64C888.347 121.68 887.027 124.2 885.827 127.2L874.307 156.72C873.467 159.12 872.747 161.7 872.147 164.46C871.667 167.22 871.427 170.22 871.427 173.46ZM900.227 136.2C900.707 135.12 901.187 134.34 901.667 133.86C902.267 133.38 902.927 133.14 903.647 133.14H908.147C908.867 133.14 909.467 133.38 909.947 133.86C910.547 134.34 911.087 135.12 911.567 136.2L920.027 163.56H891.767L900.227 136.2ZM941.627 211.8V180.84H871.427V211.8H869.627V173.46C869.627 170.1 869.867 167.04 870.347 164.28C870.947 161.4 871.727 158.64 872.687 156L884.207 126.48C885.527 123.12 887.027 120.3 888.707 118.02C890.387 115.74 893.267 114.6 897.347 114.6H914.987C918.947 114.6 921.707 115.74 923.267 118.02C924.947 120.3 926.507 123.18 927.947 126.66L940.367 156C941.327 158.64 942.047 161.4 942.527 164.28C943.127 167.04 943.427 170.1 943.427 173.46V211.8H941.627ZM889.967 221.52V196.32H921.827V221.52C921.827 223.8 922.367 225.48 923.447 226.56C924.647 227.52 926.447 228 928.847 228H956.027C958.307 228 959.927 227.52 960.887 226.56C961.967 225.48 962.507 223.8 962.507 221.52V174C962.507 170.4 961.907 166.26 960.707 161.58C959.627 156.9 957.887 151.44 955.487 145.2L939.827 104.34C939.107 102.3 937.967 100.8 936.407 99.84C934.967 98.88 933.107 98.4 930.827 98.4H882.407C880.007 98.4 878.027 98.88 876.467 99.84C875.027 100.8 873.947 102.3 873.227 104.34L857.567 145.2C855.167 151.44 853.367 156.9 852.167 161.58C851.087 166.26 850.547 170.4 850.547 174V221.52C850.547 223.8 851.027 225.48 851.987 226.56C853.067 227.52 854.747 228 857.027 228H883.487C885.767 228 887.387 227.52 888.347 226.56C889.427 225.48 889.967 223.8 889.967 221.52ZM865.847 247.62C865.367 248.1 864.587 248.52 863.507 248.88C862.547 249.24 861.467 249.42 860.267 249.42H833.807C830.927 249.42 828.827 248.76 827.507 247.44C826.187 246.12 825.527 244.02 825.527 241.14V193.62C825.527 189.9 826.067 185.7 827.147 181.02C828.347 176.22 830.207 170.58 832.727 164.1L848.207 123.42C848.567 122.34 848.987 121.44 849.467 120.72C850.067 119.88 850.667 119.16 851.267 118.56L851.447 118.38L874.487 99.12C875.447 98.28 876.587 97.68 877.907 97.32C879.227 96.84 880.727 96.6 882.407 96.6H930.827C933.587 96.6 935.807 97.2 937.487 98.4C939.287 99.48 940.607 101.22 941.447 103.62L957.107 144.48C959.627 150.96 961.427 156.6 962.507 161.4C963.707 166.08 964.307 170.28 964.307 174V221.52C964.307 223.08 964.067 224.4 963.587 225.48C963.227 226.56 962.627 227.46 961.787 228.18L938.387 247.62C937.907 248.1 937.127 248.52 936.047 248.88C935.087 249.24 934.007 249.42 932.807 249.42H905.627C902.627 249.42 900.407 248.7 898.967 247.26C897.527 245.94 896.807 243.9 896.807 241.14V217.74H891.767V221.52C891.767 223.08 891.527 224.4 891.047 225.48C890.687 226.56 890.087 227.46 889.247 228.18L865.847 247.62ZM1018.32 116.04L1084.56 190.56V114.6H1086.36V211.8H1084.56V193.26L1016.52 116.94C1016.4 116.82 1016.22 116.7 1015.98 116.58C1015.86 116.46 1015.74 116.4 1015.62 116.4C1015.5 116.4 1015.38 116.46 1015.26 116.58C1015.26 116.7 1015.26 116.82 1015.26 116.94V211.8H1013.46V116.58C1013.46 115.86 1013.7 115.32 1014.18 114.96C1014.66 114.6 1015.14 114.42 1015.62 114.42C1016.1 114.42 1016.52 114.54 1016.88 114.78C1017.24 115.02 1017.72 115.44 1018.32 116.04ZM1028.04 228C1030.32 228 1031.94 227.52 1032.9 226.56C1033.98 225.48 1034.52 223.8 1034.52 221.52V162.12L1065.3 199.38V221.52C1065.3 223.8 1065.78 225.48 1066.74 226.56C1067.82 227.52 1069.5 228 1071.78 228H1098.78C1101.06 228 1102.68 227.52 1103.64 226.56C1104.72 225.48 1105.26 223.8 1105.26 221.52V104.88C1105.26 102.6 1104.72 100.98 1103.64 100.02C1102.68 98.94 1101.06 98.4 1098.78 98.4H1071.78C1069.5 98.4 1067.82 98.94 1066.74 100.02C1065.78 100.98 1065.3 102.6 1065.3 104.88V143.22L1030.38 103.26C1028.82 101.46 1027.2 100.2 1025.52 99.48C1023.96 98.76 1022.04 98.4 1019.76 98.4H1001.04C998.761 98.4 997.081 98.94 996.001 100.02C995.041 100.98 994.561 102.6 994.561 104.88V221.52C994.561 223.8 995.041 225.48 996.001 226.56C997.081 227.52 998.761 228 1001.04 228H1028.04ZM1033.8 228.18L1010.4 247.62C1009.92 248.1 1009.14 248.52 1008.06 248.88C1007.1 249.24 1006.02 249.42 1004.82 249.42H977.821C974.941 249.42 972.841 248.76 971.521 247.44C970.201 246.12 969.541 244.02 969.541 241.14V124.5C969.541 122.94 969.721 121.62 970.081 120.54C970.561 119.46 971.221 118.56 972.061 117.84L995.281 98.22C995.881 97.74 996.661 97.38 997.621 97.14C998.701 96.78 999.841 96.6 1001.04 96.6H1019.76C1022.4 96.6 1024.62 97.02 1026.42 97.86C1028.22 98.7 1030.02 100.08 1031.82 102L1044.24 116.4L1066.02 98.22C1066.62 97.74 1067.4 97.38 1068.36 97.14C1069.44 96.78 1070.58 96.6 1071.78 96.6H1098.78C1101.66 96.6 1103.76 97.26 1105.08 98.58C1106.4 99.9 1107.06 102 1107.06 104.88V221.52C1107.06 223.08 1106.82 224.4 1106.34 225.48C1105.98 226.56 1105.38 227.46 1104.54 228.18L1081.14 247.62C1080.66 248.1 1079.88 248.52 1078.8 248.88C1077.84 249.24 1076.76 249.42 1075.56 249.42H1048.56C1045.68 249.42 1043.58 248.76 1042.26 247.44C1040.94 246.12 1040.28 244.02 1040.28 241.14V219.72L1036.32 214.86V221.52C1036.32 223.08 1036.08 224.4 1035.6 225.48C1035.24 226.56 1034.64 227.46 1033.8 228.18ZM1196.98 249.42H1120.3C1117.42 249.42 1115.32 248.76 1114 247.44C1112.68 246.12 1112.02 244.02 1112.02 241.14V219.72C1112.02 218.16 1112.2 216.84 1112.56 215.76C1113.04 214.68 1113.7 213.78 1114.54 213.06L1136.32 194.7V154.56H1120.3C1117.42 154.56 1115.32 153.9 1114 152.58C1112.68 151.26 1112.02 149.16 1112.02 146.28V124.5C1112.02 122.94 1112.2 121.62 1112.56 120.54C1113.04 119.46 1113.7 118.56 1114.54 117.84L1137.76 98.22C1138.36 97.74 1139.14 97.38 1140.1 97.14C1141.18 96.78 1142.32 96.6 1143.52 96.6H1220.2C1223.08 96.6 1225.18 97.26 1226.5 98.58C1227.82 99.9 1228.48 102 1228.48 104.88V126.66C1228.48 128.22 1228.24 129.54 1227.76 130.62C1227.4 131.7 1226.8 132.6 1225.96 133.32L1204.54 151.32V191.82H1220.2C1223.08 191.82 1225.18 192.48 1226.5 193.8C1227.82 195.12 1228.48 197.22 1228.48 200.1V221.52C1228.48 223.08 1228.24 224.4 1227.76 225.48C1227.4 226.56 1226.8 227.46 1225.96 228.18L1202.56 247.62C1202.08 248.1 1201.3 248.52 1200.22 248.88C1199.26 249.24 1198.18 249.42 1196.98 249.42ZM1143.52 228H1220.2C1222.48 228 1224.1 227.52 1225.06 226.56C1226.14 225.48 1226.68 223.8 1226.68 221.52V200.1C1226.68 197.82 1226.14 196.2 1225.06 195.24C1224.1 194.16 1222.48 193.62 1220.2 193.62H1202.74V133.14H1220.2C1222.48 133.14 1224.1 132.66 1225.06 131.7C1226.14 130.62 1226.68 128.94 1226.68 126.66V104.88C1226.68 102.6 1226.14 100.98 1225.06 100.02C1224.1 98.94 1222.48 98.4 1220.2 98.4H1143.52C1141.24 98.4 1139.56 98.94 1138.48 100.02C1137.52 100.98 1137.04 102.6 1137.04 104.88V126.66C1137.04 128.94 1137.52 130.62 1138.48 131.7C1139.56 132.66 1141.24 133.14 1143.52 133.14H1161.34V193.62H1143.52C1141.24 193.62 1139.56 194.16 1138.48 195.24C1137.52 196.2 1137.04 197.82 1137.04 200.1V221.52C1137.04 223.8 1137.52 225.48 1138.48 226.56C1139.56 227.52 1141.24 228 1143.52 228ZM1210.48 211.8H1153.24V210H1181.14V116.4H1153.24V114.6H1210.48V116.4H1182.94V210H1210.48V211.8ZM1325.51 249.42H1241.99C1239.11 249.42 1237.01 248.76 1235.69 247.44C1234.37 246.12 1233.71 244.02 1233.71 241.14V124.5C1233.71 122.94 1233.89 121.62 1234.25 120.54C1234.73 119.46 1235.39 118.56 1236.23 117.84L1259.45 98.22C1260.05 97.74 1260.83 97.38 1261.79 97.14C1262.87 96.78 1264.01 96.6 1265.21 96.6H1348.73C1351.61 96.6 1353.71 97.26 1355.03 98.58C1356.35 99.9 1357.01 102 1357.01 104.88V125.94C1357.01 127.5 1356.77 128.82 1356.29 129.9C1355.93 130.98 1355.33 131.88 1354.49 132.6L1339.01 145.38C1340.21 145.98 1341.05 146.88 1341.53 148.08C1342.13 149.28 1342.43 150.84 1342.43 152.76V172.02C1342.43 173.58 1342.19 174.9 1341.71 175.98C1341.35 177.06 1340.75 177.96 1339.91 178.68L1323.89 192.18H1348.73C1351.61 192.18 1353.71 192.84 1355.03 194.16C1356.35 195.48 1357.01 197.58 1357.01 200.46V221.52C1357.01 223.08 1356.77 224.4 1356.29 225.48C1355.93 226.56 1355.33 227.46 1354.49 228.18L1331.09 247.62C1330.61 248.1 1329.83 248.52 1328.75 248.88C1327.79 249.24 1326.71 249.42 1325.51 249.42ZM1348.73 228C1351.01 228 1352.63 227.52 1353.59 226.56C1354.67 225.48 1355.21 223.8 1355.21 221.52V200.46C1355.21 198.18 1354.67 196.56 1353.59 195.6C1352.63 194.52 1351.01 193.98 1348.73 193.98H1299.05V178.5H1334.15C1336.43 178.5 1338.05 178.02 1339.01 177.06C1340.09 175.98 1340.63 174.3 1340.63 172.02V152.76C1340.63 150.48 1340.09 148.86 1339.01 147.9C1338.05 146.82 1336.43 146.28 1334.15 146.28H1299.05V132.42H1348.73C1351.01 132.42 1352.63 131.94 1353.59 130.98C1354.67 129.9 1355.21 128.22 1355.21 125.94V104.88C1355.21 102.6 1354.67 100.98 1353.59 100.02C1352.63 98.94 1351.01 98.4 1348.73 98.4H1265.21C1262.93 98.4 1261.25 98.94 1260.17 100.02C1259.21 100.98 1258.73 102.6 1258.73 104.88V221.52C1258.73 223.8 1259.21 225.48 1260.17 226.56C1261.25 227.52 1262.93 228 1265.21 228H1348.73ZM1339.01 210V211.8H1278.35V114.6H1339.01V116.4H1280.15V161.58H1324.43V163.38H1280.15V210H1339.01ZM1461.21 249.42H1369.59C1366.71 249.42 1364.61 248.76 1363.29 247.44C1361.97 246.12 1361.31 244.02 1361.31 241.14V124.5C1361.31 122.94 1361.49 121.62 1361.85 120.54C1362.33 119.46 1362.99 118.56 1363.83 117.84L1387.05 98.22C1387.65 97.74 1388.43 97.38 1389.39 97.14C1390.47 96.78 1391.61 96.6 1392.81 96.6H1420.71C1423.59 96.6 1425.69 97.26 1427.01 98.58C1428.33 99.9 1428.99 102 1428.99 104.88V178.14L1429.35 177.78L1452.57 158.16C1453.17 157.68 1453.95 157.32 1454.91 157.08C1455.99 156.72 1457.13 156.54 1458.33 156.54H1484.43C1487.31 156.54 1489.41 157.2 1490.73 158.52C1492.05 159.84 1492.71 161.94 1492.71 164.82V221.52C1492.71 223.08 1492.47 224.4 1491.99 225.48C1491.63 226.56 1491.03 227.46 1490.19 228.18L1466.79 247.62C1466.31 248.1 1465.53 248.52 1464.45 248.88C1463.49 249.24 1462.41 249.42 1461.21 249.42ZM1484.43 228C1486.71 228 1488.33 227.52 1489.29 226.56C1490.37 225.48 1490.91 223.8 1490.91 221.52V164.82C1490.91 162.54 1490.37 160.92 1489.29 159.96C1488.33 158.88 1486.71 158.34 1484.43 158.34H1458.33C1456.05 158.34 1454.37 158.88 1453.29 159.96C1452.33 160.92 1451.85 162.54 1451.85 164.82V193.98H1427.19V104.88C1427.19 102.6 1426.65 100.98 1425.57 100.02C1424.61 98.94 1422.99 98.4 1420.71 98.4H1392.81C1390.53 98.4 1388.85 98.94 1387.77 100.02C1386.81 100.98 1386.33 102.6 1386.33 104.88V221.52C1386.33 223.8 1386.81 225.48 1387.77 226.56C1388.85 227.52 1390.53 228 1392.81 228H1484.43ZM1405.95 211.8V114.6H1407.75V210H1470.39V174.54H1472.19V211.8H1405.95ZM1498.95 187.32C1496.07 187.32 1493.97 186.72 1492.65 185.52C1491.33 184.2 1490.67 182.04 1490.67 179.04V171.84C1490.67 170.28 1490.85 168.96 1491.21 167.88C1491.69 166.8 1492.35 165.9 1493.19 165.18L1500.03 159.42H1496.61C1493.73 159.42 1491.63 158.76 1490.31 157.44C1488.99 156.12 1488.33 154.02 1488.33 151.14V124.5C1488.33 122.94 1488.51 121.62 1488.87 120.54C1489.35 119.46 1490.01 118.56 1490.85 117.84L1514.07 98.22C1514.67 97.74 1515.45 97.38 1516.41 97.14C1517.49 96.78 1518.63 96.6 1519.83 96.6H1556.19C1559.07 96.6 1561.17 97.26 1562.49 98.58C1563.81 99.9 1564.47 102 1564.47 104.88V138.72C1564.47 144 1563.63 148.56 1561.95 152.4C1560.39 156.12 1558.23 159.18 1555.47 161.58L1532.07 181.2C1529.79 183.12 1526.97 184.62 1523.61 185.7C1520.37 186.78 1516.77 187.32 1512.81 187.32H1498.95ZM1536.03 165.9C1544.07 165.9 1550.49 163.68 1555.29 159.24C1560.21 154.68 1562.67 147.84 1562.67 138.72V104.88C1562.67 102.6 1562.13 100.98 1561.05 100.02C1560.09 98.94 1558.47 98.4 1556.19 98.4H1519.83C1517.55 98.4 1515.87 98.94 1514.79 100.02C1513.83 100.98 1513.35 102.6 1513.35 104.88V131.52C1513.35 133.8 1513.83 135.48 1514.79 136.56C1515.87 137.52 1517.55 138 1519.83 138H1539.45V140.7C1539.45 142.26 1539.03 143.52 1538.19 144.48C1537.35 145.32 1536.15 145.74 1534.59 145.74H1522.17C1519.89 145.74 1518.21 146.28 1517.13 147.36C1516.17 148.32 1515.69 149.94 1515.69 152.22V159.42C1515.69 161.7 1516.17 163.38 1517.13 164.46C1518.21 165.42 1519.89 165.9 1522.17 165.9H1536.03ZM1550.07 117.3V138.72C1550.07 144.24 1548.63 148.38 1545.75 151.14C1542.87 153.78 1539.03 155.1 1534.23 155.1H1525.95V153.3H1534.23C1538.55 153.3 1541.97 152.1 1544.49 149.7C1547.01 147.18 1548.27 143.52 1548.27 138.72V119.1H1525.95V117.3H1550.07ZM1573.22 249.42C1570.34 249.42 1568.24 248.76 1566.92 247.44C1565.6 246.12 1564.94 244.02 1564.94 241.14V220.08C1564.94 218.52 1565.12 217.2 1565.48 216.12C1565.96 215.04 1566.62 214.14 1567.46 213.42L1585.46 198.3C1579.1 196.38 1574.06 193.14 1570.34 188.58C1566.74 183.9 1564.94 177.24 1564.94 168.6V149.7C1564.94 144.3 1565.84 139.5 1567.64 135.3C1569.44 131.1 1572.02 127.56 1575.38 124.68L1598.78 105.06C1602.02 102.42 1606.04 100.38 1610.84 98.94C1615.64 97.38 1621.1 96.6 1627.22 96.6H1677.62C1680.5 96.6 1682.6 97.26 1683.92 98.58C1685.24 99.9 1685.9 102 1685.9 104.88V126.3C1685.9 127.86 1685.66 129.18 1685.18 130.26C1684.82 131.34 1684.22 132.24 1683.38 132.96L1667.18 146.46C1674.74 148.14 1680.8 151.32 1685.36 156C1690.04 160.56 1692.38 167.7 1692.38 177.42V196.32C1692.38 201.72 1691.48 206.52 1689.68 210.72C1687.88 214.92 1685.24 218.46 1681.76 221.34L1658.54 240.78C1655.18 243.54 1651.1 245.64 1646.3 247.08C1641.5 248.64 1636.1 249.42 1630.1 249.42H1573.22ZM1653.32 228C1664.84 228 1673.9 225.3 1680.5 219.9C1687.22 214.38 1690.58 206.52 1690.58 196.32V177.42C1690.58 167.34 1688 160.14 1682.84 155.82C1677.68 151.5 1670.9 148.74 1662.5 147.54L1635.68 143.94C1634.12 143.82 1632.92 143.22 1632.08 142.14C1631.24 141.06 1630.82 139.74 1630.82 138.18C1630.82 136.62 1631.24 135.36 1632.08 134.4C1632.92 133.32 1634.12 132.78 1635.68 132.78H1677.62C1679.9 132.78 1681.52 132.3 1682.48 131.34C1683.56 130.26 1684.1 128.58 1684.1 126.3V104.88C1684.1 102.6 1683.56 100.98 1682.48 100.02C1681.52 98.94 1679.9 98.4 1677.62 98.4H1627.22C1615.58 98.4 1606.46 101.16 1599.86 106.68C1593.26 112.08 1589.96 119.88 1589.96 130.08V148.98C1589.96 159.06 1592.48 166.26 1597.52 170.58C1602.68 174.9 1609.46 177.66 1617.86 178.86L1644.86 182.64C1646.42 182.76 1647.56 183.3 1648.28 184.26C1649.12 185.22 1649.54 186.72 1649.54 188.76C1649.54 190.2 1649.12 191.46 1648.28 192.54C1647.56 193.5 1646.42 193.98 1644.86 193.98H1596.44C1594.16 193.98 1592.48 194.52 1591.4 195.6C1590.44 196.56 1589.96 198.18 1589.96 200.46V221.52C1589.96 223.8 1590.44 225.48 1591.4 226.56C1592.48 227.52 1594.16 228 1596.44 228H1653.32ZM1667.9 114.6V116.4H1627.94C1622.9 116.4 1618.88 117.78 1615.88 120.54C1612.88 123.3 1611.38 126.78 1611.38 130.98V145.74C1611.38 149.94 1612.22 152.88 1613.9 154.56C1615.58 156.24 1617.8 157.32 1620.56 157.8L1658.54 165.54C1662.14 166.26 1665.08 167.82 1667.36 170.22C1669.76 172.62 1670.96 176.94 1670.96 183.18V193.62C1670.96 198.9 1669.16 203.28 1665.56 206.76C1661.96 210.12 1657.1 211.8 1650.98 211.8H1606.16V210H1650.98C1656.5 210 1660.88 208.5 1664.12 205.5C1667.48 202.38 1669.16 198.42 1669.16 193.62V183.18C1669.16 177.54 1668.14 173.7 1666.1 171.66C1664.18 169.5 1661.54 168.06 1658.18 167.34L1620.2 159.6C1617.08 159 1614.5 157.8 1612.46 156C1610.54 154.08 1609.58 150.66 1609.58 145.74V130.98C1609.58 126.18 1611.26 122.28 1614.62 119.28C1617.98 116.16 1622.42 114.6 1627.94 114.6H1667.9ZM1833.9 158.7C1836.06 158.7 1837.62 158.22 1838.58 157.26C1839.54 156.3 1841.04 154.26 1843.08 151.14L1865.04 117.66C1865.76 116.46 1866.54 115.68 1867.38 115.32C1868.34 114.84 1869.3 114.6 1870.26 114.6H1873.32C1875 114.6 1876.2 115.08 1876.92 116.04C1877.76 116.88 1878.18 118.26 1878.18 120.18V211.8H1876.38V120.18C1876.38 119.22 1876.14 118.38 1875.66 117.66C1875.3 116.82 1874.52 116.4 1873.32 116.4H1870.62C1869.78 116.4 1869.06 116.52 1868.46 116.76C1867.86 117 1867.2 117.72 1866.48 118.92L1844.52 152.04C1842.36 155.28 1840.68 157.5 1839.48 158.7C1838.4 159.9 1836.54 160.5 1833.9 160.5C1831.26 160.5 1829.34 159.9 1828.14 158.7C1827.06 157.5 1825.44 155.28 1823.28 152.04L1801.32 118.92C1800.6 117.72 1799.88 117 1799.16 116.76C1798.56 116.52 1797.84 116.4 1797 116.4H1794.3C1793.1 116.4 1792.32 116.82 1791.96 117.66C1791.6 118.38 1791.42 119.22 1791.42 120.18V211.8H1789.62V120.18C1789.62 118.26 1789.98 116.88 1790.7 116.04C1791.54 115.08 1792.74 114.6 1794.3 114.6H1797.36C1798.32 114.6 1799.28 114.84 1800.24 115.32C1801.2 115.68 1802.04 116.46 1802.76 117.66L1824.72 151.14C1826.76 154.26 1828.26 156.3 1829.22 157.26C1830.18 158.22 1831.74 158.7 1833.9 158.7ZM1803.84 228C1806.12 228 1807.74 227.52 1808.7 226.56C1809.78 225.48 1810.32 223.8 1810.32 221.52V158.16L1820.94 177.78C1822.02 179.82 1823.28 181.32 1824.72 182.28C1826.28 183.12 1828.2 183.54 1830.48 183.54H1837.68C1839.96 183.54 1841.82 183.12 1843.26 182.28C1844.82 181.32 1846.14 179.82 1847.22 177.78L1857.84 158.16V221.52C1857.84 223.8 1858.32 225.48 1859.28 226.56C1860.36 227.52 1862.04 228 1864.32 228H1892.04C1894.32 228 1895.94 227.52 1896.9 226.56C1897.98 225.48 1898.52 223.8 1898.52 221.52V104.88C1898.52 102.6 1897.98 100.98 1896.9 100.02C1895.94 98.94 1894.32 98.4 1892.04 98.4H1862.88C1860.96 98.4 1859.34 98.82 1858.02 99.66C1856.82 100.5 1855.68 101.88 1854.6 103.8L1838.58 133.14C1837.98 134.22 1837.44 135 1836.96 135.48C1836.6 135.96 1836.06 136.2 1835.34 136.2H1833.72C1833 136.2 1832.4 135.96 1831.92 135.48C1831.56 135 1831.08 134.22 1830.48 133.14L1814.28 103.8C1813.2 101.88 1812 100.5 1810.68 99.66C1809.48 98.82 1807.92 98.4 1806 98.4H1777.02C1774.74 98.4 1773.06 98.94 1771.98 100.02C1771.02 100.98 1770.54 102.6 1770.54 104.88V221.52C1770.54 223.8 1771.02 225.48 1771.98 226.56C1773.06 227.52 1774.74 228 1777.02 228H1803.84ZM1809.6 228.18L1786.2 247.62C1785.72 248.1 1784.94 248.52 1783.86 248.88C1782.9 249.24 1781.82 249.42 1780.62 249.42H1753.8C1750.92 249.42 1748.82 248.76 1747.5 247.44C1746.18 246.12 1745.52 244.02 1745.52 241.14V124.5C1745.52 122.94 1745.7 121.62 1746.06 120.54C1746.54 119.46 1747.2 118.56 1748.04 117.84L1771.26 98.22C1771.86 97.74 1772.64 97.38 1773.6 97.14C1774.68 96.78 1775.82 96.6 1777.02 96.6H1806C1808.28 96.6 1810.14 97.08 1811.58 98.04C1813.14 99 1814.58 100.62 1815.9 102.9L1828.14 125.4L1829.76 122.52C1830.24 121.68 1830.72 120.9 1831.2 120.18C1831.8 119.34 1832.4 118.68 1833 118.2L1856.22 98.76C1857.18 98.04 1858.14 97.5 1859.1 97.14C1860.18 96.78 1861.44 96.6 1862.88 96.6H1892.04C1894.92 96.6 1897.02 97.26 1898.34 98.58C1899.66 99.9 1900.32 102 1900.32 104.88V221.52C1900.32 223.08 1900.08 224.4 1899.6 225.48C1899.24 226.56 1898.64 227.46 1897.8 228.18L1874.4 247.62C1873.92 248.1 1873.14 248.52 1872.06 248.88C1871.1 249.24 1870.02 249.42 1868.82 249.42H1841.1C1838.1 249.42 1835.94 248.76 1834.62 247.44C1833.42 246.12 1832.82 244.02 1832.82 241.14V193.62L1822.2 202.44C1821.24 203.28 1820.1 203.94 1818.78 204.42C1817.58 204.78 1816.14 204.96 1814.46 204.96H1812.12V221.52C1812.12 223.08 1811.88 224.4 1811.4 225.48C1811.04 226.56 1810.44 227.46 1809.6 228.18ZM2010.88 240.78C2006.68 244.38 2000.8 247.14 1993.24 249.06C1985.68 251.1 1975.96 252.12 1964.08 252.12C1952.32 252.12 1942.66 250.86 1935.1 248.34C1927.66 245.94 1921.78 242.7 1917.46 238.62C1913.26 234.54 1910.32 229.86 1908.64 224.58C1907.08 219.3 1906.3 213.84 1906.3 208.2V152.22C1906.3 146.7 1907.08 141.6 1908.64 136.92C1910.2 132.12 1913.02 128.04 1917.1 124.68L1940.5 105.24C1944.7 101.64 1950.52 98.88 1957.96 96.96C1965.52 94.92 1975.3 93.9 1987.3 93.9C1999.06 93.9 2008.66 94.86 2016.1 96.78C2023.66 98.7 2029.54 101.4 2033.74 104.88C2038.06 108.24 2041 112.32 2042.56 117.12C2044.12 121.8 2044.9 126.96 2044.9 132.6V193.98C2044.9 199.5 2044.12 204.6 2042.56 209.28C2041 213.96 2038.18 217.98 2034.1 221.34L2010.88 240.78ZM2043.1 193.98V132.6C2043.1 127.08 2042.26 122.1 2040.58 117.66C2039.02 113.1 2036.14 109.2 2031.94 105.96C2027.86 102.72 2022.16 100.2 2014.84 98.4C2007.64 96.6 1998.46 95.7 1987.3 95.7C1976.14 95.7 1966.9 96.6 1959.58 98.4C1952.26 100.2 1946.5 102.72 1942.3 105.96C1938.22 109.2 1935.34 113.1 1933.66 117.66C1932.1 122.1 1931.32 127.08 1931.32 132.6V193.98C1931.32 199.5 1932.1 204.54 1933.66 209.1C1935.34 213.54 1938.22 217.38 1942.3 220.62C1946.5 223.74 1952.26 226.2 1959.58 228C1966.9 229.8 1976.14 230.7 1987.3 230.7C1998.46 230.7 2007.64 229.8 2014.84 228C2022.16 226.2 2027.86 223.74 2031.94 220.62C2036.14 217.38 2039.02 213.54 2040.58 209.1C2042.26 204.54 2043.1 199.5 2043.1 193.98ZM2023.48 189.84C2023.48 197.04 2020.9 202.92 2015.74 207.48C2010.58 211.92 2000.98 214.14 1986.94 214.14C1972.9 214.14 1963.36 211.92 1958.32 207.48C1953.28 202.92 1950.76 197.04 1950.76 189.84V136.74C1950.76 129.54 1953.28 123.72 1958.32 119.28C1963.36 114.72 1972.9 112.44 1986.94 112.44C2000.98 112.44 2010.58 114.72 2015.74 119.28C2020.9 123.72 2023.48 129.54 2023.48 136.74V189.84ZM1952.56 189.84C1952.56 196.56 1954.96 202.02 1959.76 206.22C1964.56 210.3 1973.62 212.34 1986.94 212.34C2000.26 212.34 2009.38 210.3 2014.3 206.22C2019.22 202.02 2021.68 196.56 2021.68 189.84V136.74C2021.68 130.02 2019.22 124.62 2014.3 120.54C2009.38 116.34 2000.26 114.24 1986.94 114.24C1973.62 114.24 1964.56 116.34 1959.76 120.54C1954.96 124.62 1952.56 130.02 1952.56 136.74V189.84ZM1972.18 187.5V139.08C1972.18 136.8 1973.08 134.88 1974.88 133.32C1976.68 131.64 1980.82 130.8 1987.3 130.8C1993.78 130.8 1997.92 131.64 1999.72 133.32C2001.52 134.88 2002.42 136.8 2002.42 139.08V187.5C2002.42 189.9 2001.52 191.94 1999.72 193.62C1997.92 195.18 1993.78 195.96 1987.3 195.96C1980.82 195.96 1976.68 195.18 1974.88 193.62C1973.08 191.94 1972.18 189.9 1972.18 187.5ZM1973.98 187.5C1973.98 188.7 1974.22 189.78 1974.7 190.74C1975.18 191.58 1976.08 192.3 1977.4 192.9V158.7C1977.4 157.5 1977.16 156.48 1976.68 155.64C1976.2 154.68 1975.3 153.96 1973.98 153.48V187.5ZM2059.1 249.42C2056.22 249.42 2054.12 248.76 2052.8 247.44C2051.48 246.12 2050.82 244.02 2050.82 241.14V124.5C2050.82 122.94 2051 121.62 2051.36 120.54C2051.84 119.46 2052.5 118.56 2053.34 117.84L2076.56 98.22C2077.16 97.74 2077.94 97.38 2078.9 97.14C2079.98 96.78 2081.12 96.6 2082.32 96.6H2139.74C2152.22 96.6 2161.4 99.06 2167.28 103.98C2173.16 108.78 2176.1 116.1 2176.1 125.94V134.58C2176.1 138.78 2175.5 142.38 2174.3 145.38C2173.22 148.38 2171.54 150.78 2169.26 152.58L2168.72 152.94C2175.2 154.38 2180.06 157.5 2183.3 162.3C2186.54 166.98 2188.16 173.52 2188.16 181.92V198.48C2188.16 203.88 2187.38 208.56 2185.82 212.52C2184.26 216.36 2181.92 219.6 2178.8 222.24L2155.58 241.86C2152.58 244.38 2148.8 246.24 2144.24 247.44C2139.68 248.76 2134.34 249.42 2128.22 249.42H2059.1ZM2151.44 228C2163.32 228 2172.08 225.6 2177.72 220.8C2183.48 216 2186.36 208.56 2186.36 198.48V181.92C2186.36 173.16 2184.5 166.5 2180.78 161.94C2177.06 157.38 2171.36 154.74 2163.68 154.02C2167.28 152.46 2169.92 150.12 2171.6 147C2173.4 143.76 2174.3 139.62 2174.3 134.58V125.94C2174.3 116.58 2171.48 109.68 2165.84 105.24C2160.2 100.68 2151.5 98.4 2139.74 98.4H2082.32C2080.04 98.4 2078.36 98.94 2077.28 100.02C2076.32 100.98 2075.84 102.6 2075.84 104.88V221.52C2075.84 223.8 2076.32 225.48 2077.28 226.56C2078.36 227.52 2080.04 228 2082.32 228H2151.44ZM2144.24 211.8H2095.82V114.6H2132.36C2137.28 114.6 2141.3 115.14 2144.42 116.22C2147.54 117.18 2149.94 118.56 2151.62 120.36C2153.3 122.04 2154.44 124.02 2155.04 126.3C2155.64 128.58 2155.94 131.04 2155.94 133.68V145.2C2155.94 148.8 2155.28 152.1 2153.96 155.1C2152.76 158.1 2149.58 160.26 2144.42 161.58C2149.34 161.58 2153.36 162.12 2156.48 163.2C2159.6 164.16 2162 165.6 2163.68 167.52C2165.36 169.32 2166.44 171.48 2166.92 174C2167.52 176.52 2167.82 179.28 2167.82 182.28V193.8C2167.82 196.44 2167.52 198.9 2166.92 201.18C2166.32 203.34 2165.18 205.2 2163.5 206.76C2161.94 208.32 2159.6 209.58 2156.48 210.54C2153.36 211.38 2149.28 211.8 2144.24 211.8ZM2132.36 116.4H2097.62V161.58H2132.36C2137.28 161.58 2141.18 161.16 2144.06 160.32C2146.94 159.36 2149.1 158.16 2150.54 156.72C2152.1 155.16 2153.06 153.42 2153.42 151.5C2153.9 149.46 2154.14 147.36 2154.14 145.2V133.68C2154.14 128.88 2152.76 124.8 2150 121.44C2147.24 118.08 2141.36 116.4 2132.36 116.4ZM2116.34 129H2131.64C2133.92 129 2135.6 129.6 2136.68 130.8C2137.88 132 2138.48 133.8 2138.48 136.2V141.24C2138.48 143.64 2137.88 145.44 2136.68 146.64C2135.6 147.84 2133.92 148.44 2131.64 148.44H2116.34V129ZM2144.42 163.38H2097.62V210H2144.24C2153.24 210 2159.12 208.56 2161.88 205.68C2164.64 202.68 2166.02 198.72 2166.02 193.8V182.28C2166.02 176.88 2164.64 172.38 2161.88 168.78C2159.24 165.18 2153.42 163.38 2144.42 163.38ZM2116.34 176.16H2139.74C2142.02 176.16 2143.7 176.76 2144.78 177.96C2145.98 179.04 2146.58 180.78 2146.58 183.18V190.2C2146.58 192.6 2145.98 194.4 2144.78 195.6C2143.7 196.8 2142.02 197.4 2139.74 197.4H2116.34V176.16ZM2273.34 249.42H2196.66C2193.78 249.42 2191.68 248.76 2190.36 247.44C2189.04 246.12 2188.38 244.02 2188.38 241.14V219.72C2188.38 218.16 2188.56 216.84 2188.92 215.76C2189.4 214.68 2190.06 213.78 2190.9 213.06L2212.68 194.7V154.56H2196.66C2193.78 154.56 2191.68 153.9 2190.36 152.58C2189.04 151.26 2188.38 149.16 2188.38 146.28V124.5C2188.38 122.94 2188.56 121.62 2188.92 120.54C2189.4 119.46 2190.06 118.56 2190.9 117.84L2214.12 98.22C2214.72 97.74 2215.5 97.38 2216.46 97.14C2217.54 96.78 2218.68 96.6 2219.88 96.6H2296.56C2299.44 96.6 2301.54 97.26 2302.86 98.58C2304.18 99.9 2304.84 102 2304.84 104.88V126.66C2304.84 128.22 2304.6 129.54 2304.12 130.62C2303.76 131.7 2303.16 132.6 2302.32 133.32L2280.9 151.32V191.82H2296.56C2299.44 191.82 2301.54 192.48 2302.86 193.8C2304.18 195.12 2304.84 197.22 2304.84 200.1V221.52C2304.84 223.08 2304.6 224.4 2304.12 225.48C2303.76 226.56 2303.16 227.46 2302.32 228.18L2278.92 247.62C2278.44 248.1 2277.66 248.52 2276.58 248.88C2275.62 249.24 2274.54 249.42 2273.34 249.42ZM2219.88 228H2296.56C2298.84 228 2300.46 227.52 2301.42 226.56C2302.5 225.48 2303.04 223.8 2303.04 221.52V200.1C2303.04 197.82 2302.5 196.2 2301.42 195.24C2300.46 194.16 2298.84 193.62 2296.56 193.62H2279.1V133.14H2296.56C2298.84 133.14 2300.46 132.66 2301.42 131.7C2302.5 130.62 2303.04 128.94 2303.04 126.66V104.88C2303.04 102.6 2302.5 100.98 2301.42 100.02C2300.46 98.94 2298.84 98.4 2296.56 98.4H2219.88C2217.6 98.4 2215.92 98.94 2214.84 100.02C2213.88 100.98 2213.4 102.6 2213.4 104.88V126.66C2213.4 128.94 2213.88 130.62 2214.84 131.7C2215.92 132.66 2217.6 133.14 2219.88 133.14H2237.7V193.62H2219.88C2217.6 193.62 2215.92 194.16 2214.84 195.24C2213.88 196.2 2213.4 197.82 2213.4 200.1V221.52C2213.4 223.8 2213.88 225.48 2214.84 226.56C2215.92 227.52 2217.6 228 2219.88 228ZM2286.84 211.8H2229.6V210H2257.5V116.4H2229.6V114.6H2286.84V116.4H2259.3V210H2286.84V211.8ZM2409.97 249.42H2318.35C2315.47 249.42 2313.37 248.76 2312.05 247.44C2310.73 246.12 2310.07 244.02 2310.07 241.14V124.5C2310.07 122.94 2310.25 121.62 2310.61 120.54C2311.09 119.46 2311.75 118.56 2312.59 117.84L2335.81 98.22C2336.41 97.74 2337.19 97.38 2338.15 97.14C2339.23 96.78 2340.37 96.6 2341.57 96.6H2369.47C2372.35 96.6 2374.45 97.26 2375.77 98.58C2377.09 99.9 2377.75 102 2377.75 104.88V178.14L2378.11 177.78L2401.33 158.16C2401.93 157.68 2402.71 157.32 2403.67 157.08C2404.75 156.72 2405.89 156.54 2407.09 156.54H2433.19C2436.07 156.54 2438.17 157.2 2439.49 158.52C2440.81 159.84 2441.47 161.94 2441.47 164.82V221.52C2441.47 223.08 2441.23 224.4 2440.75 225.48C2440.39 226.56 2439.79 227.46 2438.95 228.18L2415.55 247.62C2415.07 248.1 2414.29 248.52 2413.21 248.88C2412.25 249.24 2411.17 249.42 2409.97 249.42ZM2433.19 228C2435.47 228 2437.09 227.52 2438.05 226.56C2439.13 225.48 2439.67 223.8 2439.67 221.52V164.82C2439.67 162.54 2439.13 160.92 2438.05 159.96C2437.09 158.88 2435.47 158.34 2433.19 158.34H2407.09C2404.81 158.34 2403.13 158.88 2402.05 159.96C2401.09 160.92 2400.61 162.54 2400.61 164.82V193.98H2375.95V104.88C2375.95 102.6 2375.41 100.98 2374.33 100.02C2373.37 98.94 2371.75 98.4 2369.47 98.4H2341.57C2339.29 98.4 2337.61 98.94 2336.53 100.02C2335.57 100.98 2335.09 102.6 2335.09 104.88V221.52C2335.09 223.8 2335.57 225.48 2336.53 226.56C2337.61 227.52 2339.29 228 2341.57 228H2433.19ZM2354.71 211.8V114.6H2356.51V210H2419.15V174.54H2420.95V211.8H2354.71ZM2536.86 249.42H2453.34C2450.46 249.42 2448.36 248.76 2447.04 247.44C2445.72 246.12 2445.06 244.02 2445.06 241.14V124.5C2445.06 122.94 2445.24 121.62 2445.6 120.54C2446.08 119.46 2446.74 118.56 2447.58 117.84L2470.8 98.22C2471.4 97.74 2472.18 97.38 2473.14 97.14C2474.22 96.78 2475.36 96.6 2476.56 96.6H2560.08C2562.96 96.6 2565.06 97.26 2566.38 98.58C2567.7 99.9 2568.36 102 2568.36 104.88V125.94C2568.36 127.5 2568.12 128.82 2567.64 129.9C2567.28 130.98 2566.68 131.88 2565.84 132.6L2550.36 145.38C2551.56 145.98 2552.4 146.88 2552.88 148.08C2553.48 149.28 2553.78 150.84 2553.78 152.76V172.02C2553.78 173.58 2553.54 174.9 2553.06 175.98C2552.7 177.06 2552.1 177.96 2551.26 178.68L2535.24 192.18H2560.08C2562.96 192.18 2565.06 192.84 2566.38 194.16C2567.7 195.48 2568.36 197.58 2568.36 200.46V221.52C2568.36 223.08 2568.12 224.4 2567.64 225.48C2567.28 226.56 2566.68 227.46 2565.84 228.18L2542.44 247.62C2541.96 248.1 2541.18 248.52 2540.1 248.88C2539.14 249.24 2538.06 249.42 2536.86 249.42ZM2560.08 228C2562.36 228 2563.98 227.52 2564.94 226.56C2566.02 225.48 2566.56 223.8 2566.56 221.52V200.46C2566.56 198.18 2566.02 196.56 2564.94 195.6C2563.98 194.52 2562.36 193.98 2560.08 193.98H2510.4V178.5H2545.5C2547.78 178.5 2549.4 178.02 2550.36 177.06C2551.44 175.98 2551.98 174.3 2551.98 172.02V152.76C2551.98 150.48 2551.44 148.86 2550.36 147.9C2549.4 146.82 2547.78 146.28 2545.5 146.28H2510.4V132.42H2560.08C2562.36 132.42 2563.98 131.94 2564.94 130.98C2566.02 129.9 2566.56 128.22 2566.56 125.94V104.88C2566.56 102.6 2566.02 100.98 2564.94 100.02C2563.98 98.94 2562.36 98.4 2560.08 98.4H2476.56C2474.28 98.4 2472.6 98.94 2471.52 100.02C2470.56 100.98 2470.08 102.6 2470.08 104.88V221.52C2470.08 223.8 2470.56 225.48 2471.52 226.56C2472.6 227.52 2474.28 228 2476.56 228H2560.08ZM2550.36 210V211.8H2489.7V114.6H2550.36V116.4H2491.5V161.58H2535.78V163.38H2491.5V210H2550.36Z" fill="#15394E"/>
<path d="M788.8 453H725.8C709.133 453 696.733 449.667 688.6 443C680.6 436.333 676.6 426.067 676.6 412.2V349.8C676.6 335.933 680.6 325.667 688.6 319C696.733 312.333 709.133 309 725.8 309H775.8C778.333 309 780.133 309.6 781.2 310.8C782.4 311.867 783 313.667 783 316.2V340.4C783 342.933 782.4 344.8 781.2 346C780.133 347.067 778.333 347.6 775.8 347.6H734.2C730.067 347.6 727 348.467 725 350.2C723 351.8 722 354.267 722 357.6V405.4C722 408.733 722.733 411.2 724.2 412.8C725.8 414.4 728.133 415.2 731.2 415.2H750.6V384C750.6 381.467 751.133 379.667 752.2 378.6C753.4 377.4 755.267 376.8 757.8 376.8H788.8C791.333 376.8 793.133 377.4 794.2 378.6C795.4 379.667 796 381.467 796 384V445.8C796 448.333 795.4 450.2 794.2 451.4C793.133 452.467 791.333 453 788.8 453ZM734.4 435H774.2V394.8H772.2V433H734.4C720.933 433 711.867 431.2 707.2 427.6C702.667 424 700.4 417.867 700.4 409.2V353.2C700.4 344.4 702.467 338.2 706.6 334.6C710.733 330.867 718.667 329 730.4 329H765V327H730.4C717.6 327 709.067 329 704.8 333C700.533 337 698.4 343.733 698.4 353.2V409.2C698.4 413.867 698.867 417.867 699.8 421.2C700.867 424.4 702.733 427.067 705.4 429.2C708.067 431.2 711.733 432.667 716.4 433.6C721.067 434.533 727.067 435 734.4 435ZM911.402 453H818.602C816.068 453 814.202 452.467 813.002 451.4C811.935 450.2 811.402 448.333 811.402 445.8V316.2C811.402 313.667 811.935 311.867 813.002 310.8C814.202 309.6 816.068 309 818.602 309H911.402C913.935 309 915.735 309.6 916.802 310.8C918.002 311.867 918.602 313.667 918.602 316.2V339.6C918.602 342.133 918.002 344 916.802 345.2C915.735 346.267 913.935 346.8 911.402 346.8H856.202V362.2H895.202C897.735 362.2 899.535 362.8 900.602 364C901.802 365.067 902.402 366.867 902.402 369.4V390.8C902.402 393.333 901.802 395.2 900.602 396.4C899.535 397.467 897.735 398 895.202 398H856.202V415.2H911.402C913.935 415.2 915.735 415.8 916.802 417C918.002 418.067 918.602 419.867 918.602 422.4V445.8C918.602 448.333 918.002 450.2 916.802 451.4C915.735 452.467 913.935 453 911.402 453ZM900.602 433H835.202V381.2H884.402V379.2H835.202V329H900.602V327H833.202V435H900.602V433ZM1033.26 453H940.461C937.928 453 936.061 452.467 934.861 451.4C933.794 450.2 933.261 448.333 933.261 445.8V316.2C933.261 313.667 933.794 311.867 934.861 310.8C936.061 309.6 937.928 309 940.461 309H1033.26C1035.79 309 1037.59 309.6 1038.66 310.8C1039.86 311.867 1040.46 313.667 1040.46 316.2V339.6C1040.46 342.133 1039.86 344 1038.66 345.2C1037.59 346.267 1035.79 346.8 1033.26 346.8H978.061V362.2H1017.06C1019.59 362.2 1021.39 362.8 1022.46 364C1023.66 365.067 1024.26 366.867 1024.26 369.4V390.8C1024.26 393.333 1023.66 395.2 1022.46 396.4C1021.39 397.467 1019.59 398 1017.06 398H978.061V415.2H1033.26C1035.79 415.2 1037.59 415.8 1038.66 417C1039.86 418.067 1040.46 419.867 1040.46 422.4V445.8C1040.46 448.333 1039.86 450.2 1038.66 451.4C1037.59 452.467 1035.79 453 1033.26 453ZM1022.46 433H957.061V381.2H1006.26V379.2H957.061V329H1022.46V327H955.061V435H1022.46V433ZM1078.92 435V382.2H1132.72C1140.05 382.2 1145.59 383.533 1149.32 386.2C1153.05 388.867 1154.92 393.4 1154.92 399.8V435H1156.92V399.8C1156.92 392.867 1154.92 387.867 1150.92 384.8C1146.92 381.733 1140.85 380.2 1132.72 380.2H1124.52L1147.52 327H1145.32L1122.32 380.2H1078.92V327H1076.92V435H1078.92ZM1093.32 453H1062.32C1059.79 453 1057.92 452.467 1056.72 451.4C1055.65 450.2 1055.12 448.333 1055.12 445.8V316.2C1055.12 313.667 1055.65 311.867 1056.72 310.8C1057.92 309.6 1059.79 309 1062.32 309H1093.32C1095.85 309 1097.65 309.6 1098.72 310.8C1099.92 311.867 1100.52 313.667 1100.52 316.2V362.2H1108.52L1129.12 315.6C1130.05 313.2 1131.32 311.533 1132.92 310.6C1134.52 309.533 1136.59 309 1139.12 309H1169.92C1172.19 309 1173.72 309.6 1174.52 310.8C1175.32 311.867 1175.25 313.467 1174.32 315.6L1153.92 362.2C1161.39 362.6 1167.32 365.267 1171.72 370.2C1176.25 375 1178.52 381.4 1178.52 389.4V445.8C1178.52 448.333 1177.92 450.2 1176.72 451.4C1175.65 452.467 1173.85 453 1171.32 453H1140.52C1137.99 453 1136.12 452.467 1134.92 451.4C1133.85 450.2 1133.32 448.333 1133.32 445.8V406.8C1133.32 404.667 1132.79 403 1131.72 401.8C1130.65 400.6 1129.05 400 1126.92 400H1100.52V445.8C1100.52 448.333 1099.92 450.2 1098.72 451.4C1097.65 452.467 1095.85 453 1093.32 453ZM1269.94 453H1202.54C1200.01 453 1198.14 452.467 1196.94 451.4C1195.87 450.2 1195.34 448.333 1195.34 445.8V316.2C1195.34 313.667 1195.87 311.867 1196.94 310.8C1198.14 309.6 1200.01 309 1202.54 309H1269.94C1286.61 309 1298.94 312.333 1306.94 319C1315.07 325.667 1319.14 335.933 1319.14 349.8V412.2C1319.14 426.067 1315.07 436.333 1306.94 443C1298.94 449.667 1286.61 453 1269.94 453ZM1217.14 435H1265.54C1272.34 435 1277.87 434.333 1282.14 433C1286.41 431.533 1289.67 429.6 1291.94 427.2C1294.21 424.8 1295.67 421.933 1296.34 418.6C1297.14 415.267 1297.54 411.667 1297.54 407.8V354.8C1297.54 350.933 1297.14 347.333 1296.34 344C1295.54 340.533 1294.01 337.6 1291.74 335.2C1289.47 332.667 1286.21 330.667 1281.94 329.2C1277.81 327.733 1272.34 327 1265.54 327H1217.14V435ZM1265.54 329C1271.81 329 1276.87 329.667 1280.74 331C1284.74 332.333 1287.81 334.133 1289.94 336.4C1292.07 338.667 1293.54 341.4 1294.34 344.6C1295.14 347.8 1295.54 351.2 1295.54 354.8V407.8C1295.54 411.4 1295.14 414.8 1294.34 418C1293.67 421.067 1292.27 423.733 1290.14 426C1288.01 428.133 1284.94 429.867 1280.94 431.2C1277.07 432.4 1271.94 433 1265.54 433H1219.14V329H1265.54ZM1240.74 347.2V415.2H1264.54C1267.74 415.2 1270.07 414.4 1271.54 412.8C1273.14 411.2 1273.94 408.733 1273.94 405.4V356.8C1273.94 353.467 1273.14 351.067 1271.54 349.6C1270.07 348 1267.74 347.2 1264.54 347.2H1240.74ZM1457.56 415.2C1457.56 421.333 1456.62 426.933 1454.76 432C1453.02 436.933 1449.82 441.2 1445.16 444.8C1440.62 448.267 1434.29 451 1426.16 453C1418.16 455 1407.96 456 1395.56 456C1383.16 456 1372.89 455 1364.76 453C1356.62 451 1350.22 448.267 1345.56 444.8C1341.02 441.2 1337.82 436.933 1335.96 432C1334.22 426.933 1333.36 421.333 1333.36 415.2V347C1333.36 340.867 1334.22 335.333 1335.96 330.4C1337.82 325.333 1341.02 321 1345.56 317.4C1350.22 313.8 1356.62 311 1364.76 309C1372.89 307 1383.16 306 1395.56 306C1407.96 306 1418.16 307 1426.16 309C1434.29 311 1440.62 313.8 1445.16 317.4C1449.82 321 1453.02 325.333 1454.76 330.4C1456.62 335.333 1457.56 340.867 1457.56 347V415.2ZM1435.76 410.6V351.6C1435.76 343.6 1432.89 337.133 1427.16 332.2C1421.42 327.133 1410.76 324.6 1395.16 324.6C1379.56 324.6 1368.96 327.133 1363.36 332.2C1357.76 337.133 1354.96 343.6 1354.96 351.6V410.6C1354.96 418.6 1357.76 425.133 1363.36 430.2C1368.96 435.133 1379.56 437.6 1395.16 437.6C1410.76 437.6 1421.42 435.133 1427.16 430.2C1432.89 425.133 1435.76 418.6 1435.76 410.6ZM1356.96 410.6V351.6C1356.96 344.133 1359.62 338.133 1364.96 333.6C1370.29 328.933 1380.36 326.6 1395.16 326.6C1409.96 326.6 1420.09 328.933 1425.56 333.6C1431.02 338.133 1433.76 344.133 1433.76 351.6V410.6C1433.76 418.067 1431.02 424.133 1425.56 428.8C1420.09 433.333 1409.96 435.6 1395.16 435.6C1380.36 435.6 1370.29 433.333 1364.96 428.8C1359.62 424.133 1356.96 418.067 1356.96 410.6ZM1378.76 408C1378.76 410.667 1379.76 412.933 1381.76 414.8C1383.76 416.533 1388.36 417.4 1395.56 417.4C1402.76 417.4 1407.36 416.533 1409.36 414.8C1411.36 412.933 1412.36 410.667 1412.36 408V354.2C1412.36 351.667 1411.36 349.533 1409.36 347.8C1407.36 345.933 1402.76 345 1395.56 345C1388.36 345 1383.76 345.933 1381.76 347.8C1379.76 349.533 1378.76 351.667 1378.76 354.2V408ZM1544.42 376C1542.02 376 1540.29 375.467 1539.22 374.4C1538.15 373.333 1536.49 371.067 1534.22 367.6L1509.82 330.4C1509.02 329.067 1508.09 328.2 1507.02 327.8C1505.95 327.267 1504.89 327 1503.82 327H1500.42C1498.69 327 1497.35 327.533 1496.42 328.6C1495.62 329.533 1495.22 331.067 1495.22 333.2V435H1497.22V333.2C1497.22 332.133 1497.42 331.2 1497.82 330.4C1498.22 329.467 1499.09 329 1500.42 329H1503.42C1504.35 329 1505.15 329.133 1505.82 329.4C1506.62 329.667 1507.42 330.467 1508.22 331.8L1532.62 368.6C1535.02 372.2 1536.82 374.667 1538.02 376C1539.35 377.333 1541.49 378 1544.42 378C1547.35 378 1549.42 377.333 1550.62 376C1551.95 374.667 1553.82 372.2 1556.22 368.6L1580.62 331.8C1581.42 330.467 1582.15 329.667 1582.82 329.4C1583.49 329.133 1584.29 329 1585.22 329H1588.22C1589.55 329 1590.42 329.467 1590.82 330.4C1591.35 331.2 1591.62 332.133 1591.62 333.2V435H1593.62V333.2C1593.62 331.067 1593.15 329.533 1592.22 328.6C1591.42 327.533 1590.09 327 1588.22 327H1584.82C1583.75 327 1582.69 327.267 1581.62 327.8C1580.69 328.2 1579.82 329.067 1579.02 330.4L1554.62 367.6C1552.35 371.067 1550.69 373.333 1549.62 374.4C1548.55 375.467 1546.82 376 1544.42 376ZM1511.02 453H1481.22C1478.69 453 1476.82 452.467 1475.62 451.4C1474.55 450.2 1474.02 448.333 1474.02 445.8V316.2C1474.02 313.667 1474.55 311.867 1475.62 310.8C1476.82 309.6 1478.69 309 1481.22 309H1513.42C1515.55 309 1517.29 309.467 1518.62 310.4C1520.09 311.333 1521.42 312.867 1522.62 315L1540.62 347.6C1541.29 348.8 1541.82 349.667 1542.22 350.2C1542.75 350.733 1543.42 351 1544.22 351H1546.02C1546.82 351 1547.42 350.733 1547.82 350.2C1548.35 349.667 1548.95 348.8 1549.62 347.6L1567.42 315C1568.62 312.867 1569.89 311.333 1571.22 310.4C1572.69 309.467 1574.49 309 1576.62 309H1609.02C1611.55 309 1613.35 309.6 1614.42 310.8C1615.62 311.867 1616.22 313.667 1616.22 316.2V445.8C1616.22 448.333 1615.62 450.2 1614.42 451.4C1613.35 452.467 1611.55 453 1609.02 453H1578.22C1575.69 453 1573.82 452.467 1572.62 451.4C1571.55 450.2 1571.02 448.333 1571.02 445.8V375.4L1559.22 397.2C1558.02 399.467 1556.55 401.133 1554.82 402.2C1553.22 403.133 1551.15 403.6 1548.62 403.6H1540.62C1538.09 403.6 1535.95 403.133 1534.22 402.2C1532.62 401.133 1531.22 399.467 1530.02 397.2L1518.22 375.4V445.8C1518.22 448.333 1517.62 450.2 1516.42 451.4C1515.35 452.467 1513.55 453 1511.02 453Z" fill="#15394E"/>
<defs>
<clipPath id="clip0_59902_49">
<rect width="512" height="512" fill="white" transform="translate(0 16)"/>
</clipPath>
</defs>
</svg>
